# xmcd CD database file
#
# Track frame offsets:
#	150
#	9302
#	24819
#	38720
#	51250
#	64922
#	77900
#	88022
#	100370
#	115225
#	128655
#	141815
#
# Disc length: 2067 seconds
#
# Revision: 0
# Processed by: cddbd v1.5.2PL0 Copyright (c) Steve Scherf et al.
# Submitted via: CDex 1.51
#
DISCID=9508110c
DTITLE=Lyle "Spud" Murphy - New Orbits In Sound
DYEAR=1955
DGENRE=Jazz
TTITLE0=Orbit
TTITLE1=Misty Rose
TTITLE2=I Only Have Eyes For You
TTITLE3=Lost In A Fugue
TTITLE4=Tone Poem
TTITLE5=Frantastic
TTITLE6=Slightly Off Center
TTITLE7=Daily Double
TTITLE8=Illusion
TTITLE9=Caleta
TTITLE10=Crazy Quilt
TTITLE11=Frankly Speaking
EXTD=YEAR: 1955
EXTT0=
EXTT1=
EXTT2=
EXTT3=
EXTT4=
EXTT5=
EXTT6=
EXTT7=
EXTT8=
EXTT9=
EXTT10=
EXTT11=
PLAYORDER=
